<?xml version="1.0" encoding="UTF-8"?>
<svg width="80px" height="80px" viewBox="0 0 80 80" version="1.1" xmlns="http://www.w3.org/2000/svg" xmlns:xlink="http://www.w3.org/1999/xlink">
    <!-- Generator: Sketch 60 (88103) - https://sketch.com -->
    <title>支付宝 (2) (1)</title>
    <desc>Created with Sketch.</desc>
    <g id="充值" stroke="none" stroke-width="1" fill="none" fill-rule="evenodd">
        <g id="畅想支付" transform="translate(-839.000000, -653.000000)">
            <g id="支付宝-(2)-(1)" transform="translate(839.000000, 653.000000)">
                <path d="M8,5 L71.739871,5 C76.158149,5 79.739871,8.581722 79.739871,13 L79.739871,68 C79.739871,72.418278 76.158149,76 71.739871,76 L8,76 C3.581722,76 5.41083001e-16,72.418278 0,68 L0,13 C-5.41083001e-16,8.581722 3.581722,5 8,5 Z" id="矩形" fill="#FFFFFF"></path>
                <path d="M3.445,51.0925 C2.72,54.5425 4.895,62.9075 17.945,62.9075 C26.105,62.9075 33.9,58 40.245,49.635 C31.18,45.275 23.5675,43.0925 15.2275,43.0925 C7.9775,43.0925 4.17,47.4525 3.445,51.0925 L3.445,51.0925 Z" id="路径" fill="#08A1F8" fill-rule="nonzero"></path>
                <path d="M19.9425,68.7275 C7.4325,68.7275 -0.9075,61.09 0.18,51.635 C0.905,45.455 5.075,35.275 23.3875,37.0925 C32.995,38 37.525,39.8175 45.3225,42.365 C47.315,38.545 49.13,34.545 50.3975,30 L15.4075,30 L15.4075,26.545 L32.8125,26.545 L32.8125,20.365 L11.6,20.365 L11.6,16.545 L32.8125,16.545 L32.8125,7.455 C32.8125,7.455 32.9925,6 34.625,6 L43.325,6 L43.325,16.3625 L65.805,16.3625 L65.805,20.18 L43.15,20.18 L43.15,26.365 L61.64,26.365 C60.0075,33.2725 57.47,39.635 54.2075,45.09 C58.195,46.545 72.6975,51.09 79.77,53.2725 L79.77,11.6375 C79.77,5.275 74.5125,0.00249911132 68.1675,0.00249911132 L11.6,0.00249911132 C5.26,1.95893649e-15 0,5.2725 0,11.6375 L0,68.545 C0,74.725 5.2575,80 11.6,80 L68.345,80 C74.69,80 79.945,74.7275 79.945,68.3625 L79.945,67.2725 C72.3325,64 57.2875,57.455 48.765,53.2725 C40.79,63.0925 32.45,68.7275 19.94,68.7275 L19.9425,68.7275 Z" id="路径" fill="#08A1F8" fill-rule="nonzero"></path>
            </g>
        </g>
    </g>
</svg>