<?xml version="1.0" encoding="UTF-8"?>
<svg width="20px" height="20px" viewBox="0 0 20 20" version="1.1" xmlns="http://www.w3.org/2000/svg" xmlns:xlink="http://www.w3.org/1999/xlink">
    <title>account_balance_wall</title>
    <g id="web" stroke="none" stroke-width="1" fill="none" fill-rule="evenodd">
        <g id="首页" transform="translate(-739.000000, -25.000000)" fill-rule="nonzero">
            <g id="编组-22" transform="translate(739.000000, 23.000000)">
                <g id="account_balance_wall" transform="translate(0.000000, 2.000000)">
                    <rect id="矩形" fill="#000000" opacity="0" x="0" y="0" width="20" height="20"></rect>
                    <path d="M13.3203125,11.25 C14.0234375,11.25 14.5703125,10.703125 14.5703125,10 C14.5703125,9.296875 14.0234375,8.75 13.3203125,8.75 C12.6171875,8.75 12.0703125,9.296875 12.0703125,10 C12.0703125,10.703125 12.6171875,11.25 13.3203125,11.25 Z M10,13.3203125 L10,6.6796875 L18.3203125,6.6796875 L18.3203125,13.3203125 L10,13.3203125 Z M17.5,15 L17.5,15.8203125 C17.5,16.71875 16.71875,17.5 15.8203125,17.5 L4.1796875,17.5 C3.2421875,17.5 2.5,16.71875 2.5,15.8203125 L2.5,4.1796875 C2.5,3.28125 3.2421875,2.5 4.1796875,2.5 L15.8203125,2.5 C16.71875,2.5 17.5,3.28125 17.5,4.1796875 L17.5,5 L10,5 C9.0625,5 8.3203125,5.78125 8.3203125,6.6796875 L8.3203125,13.3203125 C8.3203125,14.21875 9.0625,15 10,15 L17.5,15 Z" id="形状" fill-opacity="0.54" fill="#FFFFFF"></path>
                </g>
            </g>
        </g>
    </g>
</svg>