<?xml version="1.0" encoding="UTF-8"?>
<svg width="20px" height="70px" viewBox="0 0 20 70" version="1.1" xmlns="http://www.w3.org/2000/svg" xmlns:xlink="http://www.w3.org/1999/xlink">
    <!-- Generator: Sketch 60 (88103) - https://sketch.com -->
    <title>编组</title>
    <desc>Created with Sketch.</desc>
    <g id="个人中心" stroke="none" stroke-width="1" fill="none" fill-rule="evenodd">
        <g id="404" transform="translate(-1271.000000, -403.000000)">
            <g id="编组" transform="translate(1271.000000, 403.011600)">
                <path d="M6.00850245,4.99918388 C11.433944,5.00687214 14.1559321,5.00327766 14.1744667,4.98840044 C18.0581556,4.98840044 20,3.32560029 20,0 L20,70.0016599 C20,66.6594869 17.9929086,64.9884004 13.9787258,64.9884004 C13.9893182,64.9886084 11.3297052,64.9886592 5.99988671,64.9885528 C2.6862214,64.9884931 4.05806962e-16,62.3022181 0,58.9885528 L0,10.9991835 C-5.63309035e-06,7.68547188 2.68628839,4.99917785 6,4.99917785 C6.00283415,4.99917785 6.0056683,4.99917986 6.00850245,4.99918388 Z" id="矩形备份-8" fill="#30313F"></path>
                <polygon id="直线" fill="#848492" fill-rule="nonzero" points="7 28.6955072 7.70710678 27.9884004 14.4142136 34.6955072 13.7071068 35.402614"></polygon>
                <polygon id="直线备份" fill="#848492" fill-rule="nonzero" transform="translate(10.707107, 37.695507) scale(-1, 1) translate(-10.707107, -37.695507) " points="7 34.6955072 7.70710678 33.9884004 14.4142136 40.6955072 13.7071068 41.402614"></polygon>
            </g>
        </g>
    </g>
</svg>