<?xml version="1.0" encoding="UTF-8"?>
<svg width="20px" height="20px" viewBox="0 0 20 20" version="1.1" xmlns="http://www.w3.org/2000/svg" xmlns:xlink="http://www.w3.org/1999/xlink">
    <title>business_center</title>
    <g id="web" stroke="none" stroke-width="1" fill="none" fill-rule="evenodd">
        <g id="首页" transform="translate(-443.000000, -25.000000)">
            <g id="navbar-item" transform="translate(419.000000, 0.000000)">
                <g id="business_center" transform="translate(24.000000, 25.000000)">
                    <polygon id="路径" points="0 0 20 0 20 20 0 20"></polygon>
                    <path d="M17.5,9.16666667 L17.5,15.8333333 C17.5,16.7583333 16.7583333,17.5 15.8333333,17.5 L15.8333333,17.5 L4.16666667,17.5 C3.24166667,17.5 2.5,16.7583333 2.5,15.8333333 L2.5,15.8333333 L2.50833333,9.16666667 L8.38586806,9.16677327 C8.57092296,9.88556385 9.22343863,10.4166667 10,10.4166667 C10.7765614,10.4166667 11.429077,9.88556385 11.6141319,9.16677327 L17.5,9.16666667 Z M16.6666667,2.5 C17.5833333,2.5 18.3333333,3.25 18.3333333,4.16666667 L18.3333333,4.16666667 L18.3333333,6.66666667 C18.3333333,7.58333333 17.5833333,8.33333333 16.6666667,8.33333333 L16.6666667,8.33333333 L11.6141319,8.33322673 C11.429077,7.61443615 10.7765614,7.08333333 10,7.08333333 C9.22343863,7.08333333 8.57092296,7.61443615 8.38586806,8.33322673 L3.33333333,8.33333333 C2.40833333,8.33333333 1.66666667,7.59166667 1.66666667,6.66666667 L1.66666667,6.66666667 L1.66666667,4.16666667 C1.66666667,3.25 2.41666667,2.5 3.33333333,2.5 L3.33333333,2.5 Z" id="形状结合" fill-opacity="0.85" fill="#FFFFFF" fill-rule="nonzero"></path>
                </g>
            </g>
        </g>
    </g>
</svg>