<?xml version="1.0" encoding="UTF-8"?>
<svg width="20px" height="20px" viewBox="0 0 20 20" version="1.1" xmlns="http://www.w3.org/2000/svg" xmlns:xlink="http://www.w3.org/1999/xlink">
    <title>Roll</title>
    <g id="web" stroke="none" stroke-width="1" fill="none" fill-rule="evenodd">
        <g id="Roll房列表页" transform="translate(-591.000000, -25.000000)">
            <g id="navbar-item" transform="translate(591.000000, 23.000000)">
                <g id="Roll" transform="translate(0.000000, 2.000000)">
                    <rect id="矩形" x="0" y="0" width="20" height="20"></rect>
                    <path d="M18.25,7.40833333 L17.375,3.76666667 C17.1916667,3.01666667 16.5416667,2.5 15.7833333,2.5 L4.20833333,2.5 C3.45833333,2.5 2.8,3.025 2.625,3.76666667 L1.75,7.40833333 C1.55,8.25833333 1.73333333,9.125 2.26666667,9.80833333 C2.33333333,9.9 2.425,9.96666667 2.5,10.05 L2.5,15.8333333 C2.5,16.75 3.25,17.5 4.16666667,17.5 L15.8333333,17.5 C16.75,17.5 17.5,16.75 17.5,15.8333333 L17.5,10.05 C17.575,9.975 17.6666667,9.9 17.7333333,9.81666667 C18.2666667,9.13333333 18.4583333,8.25833333 18.25,7.40833333 Z M15.7583333,4.15833333 L16.6333333,7.8 C16.7166667,8.15 16.6416667,8.5 16.425,8.775 C16.3083333,8.925 16.0583333,9.16666667 15.6416667,9.16666667 C15.1333333,9.16666667 14.6916667,8.75833333 14.6333333,8.21666667 L14.15,4.16666667 L15.7583333,4.15833333 Z M10.8333333,4.16666667 L12.4666667,4.16666667 L12.9166667,7.93333333 C12.9583333,8.25833333 12.8583333,8.58333333 12.6416667,8.825 C12.4583333,9.04166667 12.1916667,9.16666667 11.85,9.16666667 C11.2916667,9.16666667 10.8333333,8.675 10.8333333,8.075 L10.8333333,4.16666667 Z M7.075,7.93333333 L7.53333333,4.16666667 L9.16666667,4.16666667 L9.16666667,8.075 C9.16666667,8.675 8.70833333,9.16666667 8.09166667,9.16666667 C7.80833333,9.16666667 7.55,9.04166667 7.35,8.825 C7.14166667,8.58333333 7.04166667,8.25833333 7.075,7.93333333 Z M3.36666667,7.8 L4.20833333,4.16666667 L5.85,4.16666667 L5.36666667,8.21666667 C5.3,8.75833333 4.86666667,9.16666667 4.35833333,9.16666667 C3.95,9.16666667 3.69166667,8.925 3.58333333,8.775 C3.35833333,8.50833333 3.28333333,8.15 3.36666667,7.8 Z" id="形状" fill-opacity="0.54" fill="#FFFFFF" fill-rule="nonzero"></path>
                </g>
            </g>
        </g>
    </g>
</svg>