<?xml version="1.0" encoding="UTF-8"?>
<svg width="20px" height="20px" viewBox="0 0 20 20" version="1.1" xmlns="http://www.w3.org/2000/svg" xmlns:xlink="http://www.w3.org/1999/xlink">
    <title>local_mall</title>
    <g id="web" stroke="none" stroke-width="1" fill="none" fill-rule="evenodd">
        <g id="首页" transform="translate(-591.000000, -25.000000)" fill-rule="nonzero">
            <g id="navbar-item" transform="translate(591.000000, 23.000000)">
                <g id="local_mall" transform="translate(0.000000, 2.000000)">
                    <rect id="矩形" fill="#000000" opacity="0" x="0" y="0" width="20" height="20"></rect>
                    <path d="M10,11.6666667 C12.3046875,11.6666667 14.1796875,9.83072917 14.1796875,7.52604167 L12.5,7.52604167 C12.5,8.89322917 11.3671875,10.0260417 10,10.0260417 C8.6328125,10.0260417 7.5,8.89322917 7.5,7.52604167 L5.8203125,7.52604167 C5.8203125,9.83072917 7.6953125,11.6666667 10,11.6666667 Z M10,3.34635417 C8.6328125,3.34635417 7.5,4.47916667 7.5,5.84635417 L12.5,5.84635417 C12.5,4.47916667 11.3671875,3.34635417 10,3.34635417 Z M15.8203125,5.84635417 C16.71875,5.84635417 17.5,6.62760417 17.5,7.52604167 L17.5,16.6927083 C17.5,17.5911458 16.71875,18.3333333 15.8203125,18.3333333 L4.1796875,18.3333333 C3.28125,18.3333333 2.5,17.5911458 2.5,16.6927083 L2.5,7.52604167 C2.5,6.62760417 3.28125,5.84635417 4.1796875,5.84635417 L5.8203125,5.84635417 C5.8203125,3.54166667 7.6953125,1.66666667 10,1.66666667 C12.3046875,1.66666667 14.1796875,3.54166667 14.1796875,5.84635417 L15.8203125,5.84635417 Z" id="形状" fill-opacity="0.54" fill="#FFFFFF"></path>
                </g>
            </g>
        </g>
    </g>
</svg>