<?xml version="1.0" encoding="UTF-8"?>
<svg width="80px" height="80px" viewBox="0 0 80 80" version="1.1" xmlns="http://www.w3.org/2000/svg" xmlns:xlink="http://www.w3.org/1999/xlink">
    <!-- Generator: Sketch 60 (88103) - https://sketch.com -->
    <title>微信 (4) (1)</title>
    <desc>Created with Sketch.</desc>
    <g id="充值" stroke="none" stroke-width="1" fill="none" fill-rule="evenodd">
        <g id="畅想支付" transform="translate(-840.000000, -678.000000)">
            <g id="微信-(4)-(1)" transform="translate(840.000000, 678.000000)">
                <rect id="矩形" fill="#FFFFFF" x="3" y="7" width="72" height="67" rx="8"></rect>
                <path d="M21.0825,26.8475 C21.0825,28.48 22.3575,29.75 23.9925,29.75 C25.63,29.75 26.9025,28.48 26.9025,26.8475 C26.9025,25.215 25.6275,23.9475 23.9925,23.9475 C22.3575,23.9475 21.0825,25.215 21.0825,26.8475 Z M43.985,42.085 C43.985,43.3575 45.0775,44.4425 46.35,44.4425 C47.6225,44.4425 48.7125,43.3575 48.7125,42.085 C48.6871493,40.7916967 47.6433541,39.7501106 46.35,39.7275 C45.0556702,39.7487812 44.0103922,40.7907443 43.985,42.085 L43.985,42.085 Z M36.17,26.85 C36.17,28.48 37.445,29.75 39.08,29.75 C40.715,29.75 41.9875,28.48 41.9875,26.8475 C41.9875,25.215 40.7125,23.9475 39.0775,23.9475 C37.4425,23.9475 36.17,25.215 36.17,26.8475 L36.17,26.85 Z" id="形状" fill="#42AE3C" fill-rule="nonzero"></path>
                <path d="M67.07,0 L12.905,0 C5.8175,0 0,5.805 0,13.0625 L0,66.9375 C0,74.195 5.8175,80 12.905,80 L67.07,80 C74.16,80 79.975,74.195 79.975,66.9375 L79.975,13.0625 C79.975,5.805 74.1575,0 67.07,0 Z M29.99,53.515 C26.9,53.515 24.5375,52.97 21.4475,52.245 L12.905,56.4175 L15.27,49.1625 C9.27,44.9875 5.635,39.5475 5.635,32.835 C5.635,21.2225 16.54,12.155 29.81,12.155 C41.805,12.155 52.165,19.41 54.3475,29.205 C53.62,29.205 52.71,29.0225 51.9825,29.0225 C40.5325,29.0225 31.445,37.55 31.445,48.255 C31.445,50.0675 31.81,51.7 32.1725,53.3325 C31.6275,53.515 30.7175,53.515 29.99,53.515 Z M65.7975,62.04 L67.6175,68.0275 L60.89,64.4 C58.525,64.9425 55.9825,65.67 53.62,65.67 C41.9875,65.67 32.8975,57.87 32.8975,48.0725 C32.8975,38.4575 41.9875,30.4775 53.62,30.4775 C64.525,30.4775 74.1575,38.2775 74.1575,48.0725 C74.34,53.515 70.7025,58.4125 65.7975,62.04 Z" id="形状" fill="#42AE3C" fill-rule="nonzero"></path>
                <path d="M55.6175,42.085 C55.6175,43.3575 56.71,44.4425 57.9825,44.4425 C59.255,44.4425 60.345,43.3575 60.345,42.085 C60.3196493,40.7916967 59.2758541,39.7501106 57.9825,39.7275 C56.6881702,39.7487812 55.6428922,40.7907443 55.6175,42.085 L55.6175,42.085 Z" id="路径" fill="#42AE3C" fill-rule="nonzero"></path>
            </g>
        </g>
    </g>
</svg>