<?xml version="1.0" encoding="UTF-8"?>
<svg width="155px" height="71px" viewBox="0 0 155 71" version="1.1" xmlns="http://www.w3.org/2000/svg" xmlns:xlink="http://www.w3.org/1999/xlink">
    <!-- Generator: Sketch 63.1 (92452) - https://sketch.com -->
    <title>编组</title>
    <desc>Created with Sketch.</desc>
    <g id="拼人品" stroke="none" stroke-width="1" fill="none" fill-rule="evenodd">
        <g id="宽屏显示器交互" transform="translate(-374.000000, -169.000000)" fill="#E9B10E" fill-rule="nonzero">
            <g id="分组-9" transform="translate(310.000000, 84.000000)">
                <g id="编组" transform="translate(64.000000, 85.052609)">
                    <g id="麦穗右-(1)" transform="translate(125.000000, 0.000000)">
                        <path d="M28.5136292,25.6945263 C28.5715579,25.8938246 28.6294865,26.0399766 28.6294865,26.1816998 C28.77208,28.2632593 28.4601566,30.2916725 27.8006615,32.2315088 C27.5154743,33.0685614 27.1768147,33.848039 26.7445779,34.6319454 C26.2276762,35.5841482 25.4567798,36.3060507 24.3739599,36.5363509 C24.2508825,36.5696725 24.1416484,36.6410168 24.0620366,36.740078 C23.8837946,37.2051072 23.6297998,37.6701365 23.6297998,38.1307368 C23.5829776,40.7188205 23.2769713,43.2958384 22.7163099,45.8236491 C22.6895736,45.9122261 22.6895736,45.9963743 22.7742385,46.1115244 C22.8321671,45.9653724 22.916832,45.8236491 22.9435683,45.650924 C23.286684,43.9989629 23.8035858,42.4090058 24.8284769,41.0227758 C26.0850827,39.3442417 27.6001393,38.0111579 29.6276414,37.3202573 C29.6855701,37.2892554 29.7434987,37.2892554 29.8014273,37.2626823 C29.8281636,37.2626823 29.859356,37.2626823 29.9707572,37.2892554 C29.9707572,37.5815595 30.0019495,37.9004367 29.9128285,38.1883119 C29.315718,40.7304718 28.2596344,43.0157583 26.4593908,44.8980195 C25.6305657,45.766074 24.6324108,46.3152514 23.3446127,46.2001014 C23.2287555,46.2001014 23.0326893,46.2576765 22.9747607,46.3418246 C22.7163098,46.7758518 22.4043864,47.2098791 22.2306005,47.7014815 C21.4342065,50.2960563 20.3819274,52.8061111 19.0890862,55.1950955 C18.9999652,55.3368187 18.9464926,55.5095439 18.8618277,55.6556959 L19.0044212,55.7442729 C19.1470148,55.5405458 19.3163446,55.3678206 19.4054656,55.1640936 C20.0605048,53.8620117 20.8314012,52.6750799 21.9454134,51.7228772 C23.5451349,50.3322183 25.3765709,49.5837427 27.5154743,49.6103158 C28.0858486,49.6103158 28.1170409,49.6678909 27.943255,50.2480702 C27.6313316,51.2312748 27.0876936,52.0993295 26.4593908,52.9053801 C25.572637,54.0347368 24.6012184,55.1065185 23.286684,55.770846 C22.0880069,56.3775984 20.8314012,56.6389005 19.5168668,56.0011462 C19.4277458,55.9745732 19.3163446,55.9435711 19.258416,55.9745731 C18.888564,56.2624483 18.4028546,56.4617466 18.1755962,56.8426277 C16.8757324,58.9285387 15.351737,60.86794 13.6304264,62.6267056 C13.5769538,62.6842807 13.5190252,62.7418557 13.4610966,62.8304327 C13.4343603,62.8570058 13.4610966,62.8880078 13.4343603,63.0873061 C13.6883551,62.8880078 13.8888773,62.7684289 14.0314708,62.6001325 C15.0028895,61.5283509 16.1169016,60.6292943 17.5161009,60.195267 C19.6327241,59.5619415 21.6869626,59.7922417 23.7144648,60.6602963 C23.7723934,60.6868694 23.8035858,60.7178714 23.9461793,60.8330214 C23.6609922,61.1784717 23.4292777,61.554924 23.1173543,61.8427992 C21.1477807,63.5789083 18.9197564,64.6772632 16.2594952,64.6196881 C15.4864086,64.5956023 14.7471714,64.2988864 14.1740644,63.7826354 C13.6616189,63.3176062 13.0333159,63.2910331 12.4629417,63.7826354 C10.9537632,65.1283239 9.28353388,66.2841007 7.48999128,67.2238518 L6.29131418,67.8306043 C6.3225065,67.8881794 6.3225065,67.9191813 6.34924285,67.9767563 C6.54976504,67.9191812 6.75028723,67.8881793 6.89288076,67.7996024 C7.8642994,67.2548539 8.86245431,66.7898246 9.97646648,66.6481014 C12.2624195,66.3557973 14.2631854,67.0776998 16.1169016,68.3797817 C16.428825,68.6145107 16.7452045,68.871384 17.1462489,69.1902612 C16.7184682,69.4781365 16.4020888,69.7660117 16.0055004,69.9431657 C13.862141,70.8953684 11.6341166,71.2452475 9.32142736,70.6074932 C8.2074152,70.288616 7.26273282,69.7128654 6.69235856,68.6720858 C6.49183637,68.2956335 5.66746739,68.0609045 5.20849433,68.2380585 C3.68884551,68.8328942 2.10776896,69.2591695 0.493994804,69.5091384 C0.351401279,69.5357115 0.208807676,69.5357115 0.0350217493,69.5357115 C-0.0184508616,69.1061131 0.150879008,68.871384 0.551923394,68.8138089 C2.15837582,68.5475779 3.72943527,68.1018681 5.2352306,67.485154 C6.00612705,67.1662768 6.3225065,66.7056765 6.20664924,65.8641949 C6.02121608,64.2182217 6.30857874,62.5537069 7.03547436,61.0633217 C7.83756313,59.4157895 9.00504791,58.1402807 10.5468407,57.245653 C10.662698,57.1880779 10.8052916,57.1305029 11.0058138,57.0153528 C10.9808688,57.2756947 10.9511569,57.5355636 10.9166928,57.7948304 C10.6047694,59.6195166 10.4354395,61.4397739 9.83387295,63.2024561 C9.37935595,64.5311111 8.57726718,65.5497466 7.34739775,66.214074 C7.18009352,66.3098909 6.99785723,66.377251 6.80821582,66.4133723 C6.40717144,66.4133723 6.34924277,66.6170994 6.34924285,67.0201247 C6.49183637,66.9625497 6.60769371,66.9315477 6.71909483,66.8784016 C9.03624016,65.7800468 11.0904786,64.3318129 12.948651,62.5381287 C13.4343603,62.0509552 13.3496954,61.3511969 13.1491732,60.8330214 C12.2579634,58.4325847 12.4050131,56.0321481 13.2071019,53.6582846 C13.6081462,52.4447797 14.2631854,51.3464249 15.0920105,50.3632203 C15.1766754,50.2746432 15.2613403,50.2170682 15.4039339,50.075345 C15.4930549,50.7396725 15.5732637,51.3464249 15.6311923,51.9266043 C15.7470496,53.0781053 15.8896432,54.2384639 15.9431157,55.3943938 C16.0322367,56.9887797 15.9163795,58.5787368 14.9449608,59.9073918 C14.6523041,60.3343471 14.2856694,60.7062418 13.862141,61.0057466 C13.5190252,61.2670487 13.4610966,61.4973489 13.5769538,61.9623782 C14.0047345,61.4707758 14.4057789,61.0633217 14.775631,60.6337232 C16.148094,59.0393372 17.3735074,57.3608031 18.3449261,55.5095439 C18.6301132,54.9603665 18.4607833,54.296039 18.1444039,53.8354386 C15.8629069,50.3632203 15.9163795,46.7492788 17.4046997,43.0157582 C17.431436,42.9271812 17.4893647,42.8740351 17.5161009,42.7854581 C17.5161009,42.7544561 17.5740296,42.7544561 17.6319582,42.7278831 C18.4875196,45.0397427 19.6327241,47.2408811 19.8599826,49.7254659 C20.0025761,51.2312748 19.7708616,52.6485068 18.7727067,53.8620117 C18.6301132,54.0391657 18.6880418,54.353614 18.6613055,54.5839142 C18.7192342,54.6149161 18.7727067,54.6149161 18.803899,54.6414893 L19.3163446,53.6892866 C20.4615491,51.257848 21.3750392,48.7732632 22.003342,46.1425263 C22.0300783,46.0229474 22.0612707,45.8767953 22.0300784,45.7926472 C21.7448912,45.2168967 21.5755614,44.5791423 20.9472585,44.1761169 C19.7753177,43.3656374 19.1202786,42.1211306 18.5454483,40.8190488 C17.6319583,38.7064874 17.5205571,36.5407797 17.8324804,34.3086394 C17.8324804,34.2554932 17.8592167,34.1979182 17.8904091,34.1403431 C17.9483377,34.1669161 18.0018103,34.1669161 18.0018103,34.1979182 C19.0311575,35.6417232 20.1451697,37.0323821 21.1165883,38.5381911 C22.0612706,39.955423 22.6004525,41.5143782 22.3464578,43.2504874 C22.3032419,43.6027351 22.1976387,43.9446005 22.0345344,44.2602651 C21.7448912,44.6632904 21.9454134,44.9245925 22.2306005,45.3586199 C22.4043865,44.4329903 22.6004526,43.6225108 22.6895735,42.81646 C22.8900957,40.7614737 23.0014969,38.7374892 23.1440905,36.6825029 C23.1752828,36.2794775 22.5737163,35.322846 22.2306005,35.2076959 C20.4615492,34.6585185 19.3163447,33.3564366 18.4028546,31.8240546 C17.4660545,30.2321567 16.9451978,28.4324658 16.8877981,26.589154 L16.8877981,26.2702768 C16.8877981,26.2437038 16.9189904,26.2127018 16.9457267,26.1285536 C17.1774412,26.3278518 17.4358921,26.5050059 17.6586945,26.7043041 C18.6880418,27.5723587 19.7441254,28.4138402 20.7155439,29.3394698 C21.8874848,30.4643977 22.6316449,31.8550566 22.7475022,33.5291618 C22.7742385,33.963189 22.7475022,34.3972163 22.6895735,34.8046705 C22.6004525,35.2076959 22.8009747,35.3804211 23.1440905,35.6727252 C23.1440905,35.207696 23.1752828,34.8622456 23.1440905,34.5123665 C23.0069251,31.9424351 22.6536652,29.3884148 22.0880069,26.8770292 C21.9430675,26.1754319 21.3247475,25.6697695 20.6041427,25.6635244 C18.9999652,25.6369513 17.7745518,24.8220429 16.6872759,23.785692 C15.3771976,22.5411852 14.6063011,20.9778011 14.0582071,19.2726939 C14.0582071,19.2461209 14.0314708,19.1841169 14.0314708,19.1265419 C14.0314708,19.0999689 14.0626632,19.0689668 14.0626632,19.0379649 C14.0893994,19.0379649 14.1205918,19.0113918 14.1473281,19.0113918 C15.6311923,19.6491462 17.1774412,20.2293255 18.6301131,20.9512281 C19.9179112,21.6155555 20.8581374,22.6563353 21.1700609,24.1311423 C21.2433717,24.4535199 21.27334,24.7841374 21.2591819,25.114347 C21.2324456,25.4907993 21.4329678,25.6369513 21.7760836,25.7786745 C21.7760836,25.6635244 21.8028198,25.5483743 21.7760836,25.4597973 C21.0926596,22.8954912 20.1738289,20.3989547 19.0311575,18.001614 C18.888564,17.7093099 18.0330026,17.3062846 17.7166231,17.4258635 C15.5465274,18.1167641 13.777476,17.3062846 12.1465622,15.9466277 C11.3444734,15.2823003 10.6894343,14.4408188 10.1502524,13.457614 C10.4621758,13.457614 10.7473629,13.431041 11.0058138,13.457614 C12.4317493,13.577193 13.857685,13.5196179 15.234604,14.0112203 C16.6338033,14.4983938 17.6319582,15.3664483 17.975074,16.8722573 C18.064195,17.2487096 18.3181897,17.2487096 18.6613055,17.3372866 C18.5721845,17.1335595 18.5454483,17.0184094 18.4875196,16.9032593 C17.5260686,14.9963505 16.3988601,13.1765581 15.1187467,11.4646316 C14.8602959,11.1457544 14.0938556,10.9420273 13.7462837,11.1191813 C11.4335944,12.3326862 9.32142728,11.8100819 7.34739775,10.2776998 C6.83495217,9.90124755 6.43390778,9.38307211 5.97939078,8.91804289 C6.00612705,8.86046781 6.03286339,8.82946588 6.06405572,8.77631965 C6.29131418,8.74531772 6.54976504,8.68774264 6.7770235,8.65674071 C8.00689292,8.45744246 9.23230637,8.13856527 10.4933681,8.28471737 C11.9772323,8.45744254 13.2338381,9.00661991 13.8888773,10.508 C14.0314708,10.8268772 14.0626632,10.8268772 14.6018451,10.742729 C14.0626632,10.1049747 13.6036902,9.4982222 13.0600522,8.94904483 C12.2579634,8.13856527 11.4603307,7.35465886 10.6359617,6.54860816 C10.4968766,6.42249304 10.328442,6.33270231 10.1457963,6.28730605 C7.9757006,6.14115403 6.34924285,5.04722807 5.11937334,3.30669008 C4.49309786,2.43170401 4.02976308,1.45218981 3.75136637,0.414651055 C3.72017405,0.326074039 3.72017405,0.215352809 3.69343778,0.0692007884 C4.31728457,0.299500966 4.89657094,0.50322807 5.46248914,0.706955174 C6.83495217,1.19412868 8.18067885,1.74773491 9.23230637,2.84608965 C10.0611314,3.71414421 10.6047694,4.66634694 10.4933681,5.91085378 C10.4933681,5.99943079 10.5468407,6.14115395 10.6359617,6.19872904 C12.489678,7.85069008 14.1205918,9.69752044 15.6044561,11.6683587 C15.6311923,11.7259338 15.7203133,11.7569357 15.7470496,11.8100818 C15.7737858,11.7835088 15.8361706,11.7835088 15.8629068,11.7525068 C15.7470496,11.4912047 15.6891209,11.1767563 15.5197911,10.9996024 C13.8042124,9.12177 12.9798433,6.86748543 12.8016014,4.34746982 C12.7169365,3.24911508 12.8016014,2.15076026 12.8327937,1.05240544 C12.8327937,0.87525141 12.9219147,0.733528248 13.0065797,0.414651055 C13.5769539,1.05240544 14.0893995,1.54400781 14.5216362,2.12418711 C15.7203133,3.74071729 16.602611,5.5344015 16.8343255,7.5893879 C16.976919,8.82946588 16.9189904,10.0163976 16.0901654,11.0571774 C16.0322367,11.1457544 15.9743081,11.2919064 16.0010444,11.3760546 C16.063429,11.9518051 16.148094,12.5054113 16.517946,13.0235868 C17.8904091,14.905848 19.0044212,16.9608343 19.9758399,19.0689668 L20.1451697,19.418846 C20.1763621,19.418846 20.2342907,19.387844 20.261027,19.387844 C20.2030983,19.1841169 20.2030983,18.9272437 20.1184334,18.7500897 C18.9153002,16.6419571 18.5142558,14.3566705 18.6301131,11.9562339 C18.7192341,10.4814269 19.0623498,9.09076807 19.717389,7.76211307 C19.7441253,7.67353605 19.80651,7.61596105 19.8867189,7.47423781 C20.0337685,7.70453799 20.1986423,7.87726316 20.2877633,8.08099026 C21.544369,10.685154 22.1726719,13.431041 21.9186771,16.3540818 C21.8441643,17.3192532 21.4160916,18.2237493 20.7155439,18.8962417 C20.630879,18.9848188 20.5150217,19.1265419 20.5462141,19.2151189 C20.5462141,19.7908695 20.5150218,20.3444757 20.7467363,20.9202261 C21.629034,23.0903626 22.2885292,25.3180741 22.7163099,27.6033606 C22.7163099,27.6299337 22.7475022,27.6919376 22.8900957,27.7185107 C22.8900957,27.4882105 22.9435683,27.2269083 22.9168321,26.9966082 C22.7475022,25.6945263 22.4311227,24.3924444 22.3731941,23.0903625 C22.2573368,20.4020506 23.1440905,18.059189 24.8864055,16.0042027 C24.9175979,15.9776296 24.9755265,15.9776296 25.0869277,15.8890526 C25.202785,16.292078 25.3721149,16.6685302 25.4567798,17.0759844 C26.0051544,19.5540857 25.9960248,22.1219839 25.4300435,24.5961716 C25.1715927,25.7476725 24.5744821,26.7043041 23.4872062,27.2844834 C23.3980852,27.3110565 23.3178764,27.3996335 23.3178764,27.4616375 C23.2287555,28.006386 23.0059531,28.5865653 23.0861619,29.1047407 C23.46047,31.5627524 23.6030635,34.0207641 23.6609922,36.4787758 C23.6609922,36.5407797 23.6877284,36.6249278 23.6877284,36.6825029 C23.7144647,36.6825029 23.7768494,36.6825029 23.8035857,36.7135049 C23.830322,36.5097778 23.9149869,36.2794776 23.914987,36.0757505 C23.8882507,34.6319454 23.8615144,33.1837116 24.2581027,31.7974815 C24.9710705,29.3970448 26.2276762,27.3996335 28.2596344,25.8938246 C28.2863707,25.8362495 28.3710356,25.7786745 28.5136292,25.6945263 L28.5136292,25.6945263 Z" id="路径"></path>
                    </g>
                    <g id="麦穗右-(1)-copy" transform="translate(15.000000, 35.500000) scale(-1, 1) translate(-15.000000, -35.500000) ">
                        <path d="M28.5136292,25.6945263 C28.5715579,25.8938246 28.6294865,26.0399766 28.6294865,26.1816998 C28.77208,28.2632593 28.4601566,30.2916725 27.8006615,32.2315088 C27.5154743,33.0685614 27.1768147,33.848039 26.7445779,34.6319454 C26.2276762,35.5841482 25.4567798,36.3060507 24.3739599,36.5363509 C24.2508825,36.5696725 24.1416484,36.6410168 24.0620366,36.740078 C23.8837946,37.2051072 23.6297998,37.6701365 23.6297998,38.1307368 C23.5829776,40.7188205 23.2769713,43.2958384 22.7163099,45.8236491 C22.6895736,45.9122261 22.6895736,45.9963743 22.7742385,46.1115244 C22.8321671,45.9653724 22.916832,45.8236491 22.9435683,45.650924 C23.286684,43.9989629 23.8035858,42.4090058 24.8284769,41.0227758 C26.0850827,39.3442417 27.6001393,38.0111579 29.6276414,37.3202573 C29.6855701,37.2892554 29.7434987,37.2892554 29.8014273,37.2626823 C29.8281636,37.2626823 29.859356,37.2626823 29.9707572,37.2892554 C29.9707572,37.5815595 30.0019495,37.9004367 29.9128285,38.1883119 C29.315718,40.7304718 28.2596344,43.0157583 26.4593908,44.8980195 C25.6305657,45.766074 24.6324108,46.3152514 23.3446127,46.2001014 C23.2287555,46.2001014 23.0326893,46.2576765 22.9747607,46.3418246 C22.7163098,46.7758518 22.4043864,47.2098791 22.2306005,47.7014815 C21.4342065,50.2960563 20.3819274,52.8061111 19.0890862,55.1950955 C18.9999652,55.3368187 18.9464926,55.5095439 18.8618277,55.6556959 L19.0044212,55.7442729 C19.1470148,55.5405458 19.3163446,55.3678206 19.4054656,55.1640936 C20.0605048,53.8620117 20.8314012,52.6750799 21.9454134,51.7228772 C23.5451349,50.3322183 25.3765709,49.5837427 27.5154743,49.6103158 C28.0858486,49.6103158 28.1170409,49.6678909 27.943255,50.2480702 C27.6313316,51.2312748 27.0876936,52.0993295 26.4593908,52.9053801 C25.572637,54.0347368 24.6012184,55.1065185 23.286684,55.770846 C22.0880069,56.3775984 20.8314012,56.6389005 19.5168668,56.0011462 C19.4277458,55.9745732 19.3163446,55.9435711 19.258416,55.9745731 C18.888564,56.2624483 18.4028546,56.4617466 18.1755962,56.8426277 C16.8757324,58.9285387 15.351737,60.86794 13.6304264,62.6267056 C13.5769538,62.6842807 13.5190252,62.7418557 13.4610966,62.8304327 C13.4343603,62.8570058 13.4610966,62.8880078 13.4343603,63.0873061 C13.6883551,62.8880078 13.8888773,62.7684289 14.0314708,62.6001325 C15.0028895,61.5283509 16.1169016,60.6292943 17.5161009,60.195267 C19.6327241,59.5619415 21.6869626,59.7922417 23.7144648,60.6602963 C23.7723934,60.6868694 23.8035858,60.7178714 23.9461793,60.8330214 C23.6609922,61.1784717 23.4292777,61.554924 23.1173543,61.8427992 C21.1477807,63.5789083 18.9197564,64.6772632 16.2594952,64.6196881 C15.4864086,64.5956023 14.7471714,64.2988864 14.1740644,63.7826354 C13.6616189,63.3176062 13.0333159,63.2910331 12.4629417,63.7826354 C10.9537632,65.1283239 9.28353388,66.2841007 7.48999128,67.2238518 L6.29131418,67.8306043 C6.3225065,67.8881794 6.3225065,67.9191813 6.34924285,67.9767563 C6.54976504,67.9191812 6.75028723,67.8881793 6.89288076,67.7996024 C7.8642994,67.2548539 8.86245431,66.7898246 9.97646648,66.6481014 C12.2624195,66.3557973 14.2631854,67.0776998 16.1169016,68.3797817 C16.428825,68.6145107 16.7452045,68.871384 17.1462489,69.1902612 C16.7184682,69.4781365 16.4020888,69.7660117 16.0055004,69.9431657 C13.862141,70.8953684 11.6341166,71.2452475 9.32142736,70.6074932 C8.2074152,70.288616 7.26273282,69.7128654 6.69235856,68.6720858 C6.49183637,68.2956335 5.66746739,68.0609045 5.20849433,68.2380585 C3.68884551,68.8328942 2.10776896,69.2591695 0.493994804,69.5091384 C0.351401279,69.5357115 0.208807676,69.5357115 0.0350217493,69.5357115 C-0.0184508616,69.1061131 0.150879008,68.871384 0.551923394,68.8138089 C2.15837582,68.5475779 3.72943527,68.1018681 5.2352306,67.485154 C6.00612705,67.1662768 6.3225065,66.7056765 6.20664924,65.8641949 C6.02121608,64.2182217 6.30857874,62.5537069 7.03547436,61.0633217 C7.83756313,59.4157895 9.00504791,58.1402807 10.5468407,57.245653 C10.662698,57.1880779 10.8052916,57.1305029 11.0058138,57.0153528 C10.9808688,57.2756947 10.9511569,57.5355636 10.9166928,57.7948304 C10.6047694,59.6195166 10.4354395,61.4397739 9.83387295,63.2024561 C9.37935595,64.5311111 8.57726718,65.5497466 7.34739775,66.214074 C7.18009352,66.3098909 6.99785723,66.377251 6.80821582,66.4133723 C6.40717144,66.4133723 6.34924277,66.6170994 6.34924285,67.0201247 C6.49183637,66.9625497 6.60769371,66.9315477 6.71909483,66.8784016 C9.03624016,65.7800468 11.0904786,64.3318129 12.948651,62.5381287 C13.4343603,62.0509552 13.3496954,61.3511969 13.1491732,60.8330214 C12.2579634,58.4325847 12.4050131,56.0321481 13.2071019,53.6582846 C13.6081462,52.4447797 14.2631854,51.3464249 15.0920105,50.3632203 C15.1766754,50.2746432 15.2613403,50.2170682 15.4039339,50.075345 C15.4930549,50.7396725 15.5732637,51.3464249 15.6311923,51.9266043 C15.7470496,53.0781053 15.8896432,54.2384639 15.9431157,55.3943938 C16.0322367,56.9887797 15.9163795,58.5787368 14.9449608,59.9073918 C14.6523041,60.3343471 14.2856694,60.7062418 13.862141,61.0057466 C13.5190252,61.2670487 13.4610966,61.4973489 13.5769538,61.9623782 C14.0047345,61.4707758 14.4057789,61.0633217 14.775631,60.6337232 C16.148094,59.0393372 17.3735074,57.3608031 18.3449261,55.5095439 C18.6301132,54.9603665 18.4607833,54.296039 18.1444039,53.8354386 C15.8629069,50.3632203 15.9163795,46.7492788 17.4046997,43.0157582 C17.431436,42.9271812 17.4893647,42.8740351 17.5161009,42.7854581 C17.5161009,42.7544561 17.5740296,42.7544561 17.6319582,42.7278831 C18.4875196,45.0397427 19.6327241,47.2408811 19.8599826,49.7254659 C20.0025761,51.2312748 19.7708616,52.6485068 18.7727067,53.8620117 C18.6301132,54.0391657 18.6880418,54.353614 18.6613055,54.5839142 C18.7192342,54.6149161 18.7727067,54.6149161 18.803899,54.6414893 L19.3163446,53.6892866 C20.4615491,51.257848 21.3750392,48.7732632 22.003342,46.1425263 C22.0300783,46.0229474 22.0612707,45.8767953 22.0300784,45.7926472 C21.7448912,45.2168967 21.5755614,44.5791423 20.9472585,44.1761169 C19.7753177,43.3656374 19.1202786,42.1211306 18.5454483,40.8190488 C17.6319583,38.7064874 17.5205571,36.5407797 17.8324804,34.3086394 C17.8324804,34.2554932 17.8592167,34.1979182 17.8904091,34.1403431 C17.9483377,34.1669161 18.0018103,34.1669161 18.0018103,34.1979182 C19.0311575,35.6417232 20.1451697,37.0323821 21.1165883,38.5381911 C22.0612706,39.955423 22.6004525,41.5143782 22.3464578,43.2504874 C22.3032419,43.6027351 22.1976387,43.9446005 22.0345344,44.2602651 C21.7448912,44.6632904 21.9454134,44.9245925 22.2306005,45.3586199 C22.4043865,44.4329903 22.6004526,43.6225108 22.6895735,42.81646 C22.8900957,40.7614737 23.0014969,38.7374892 23.1440905,36.6825029 C23.1752828,36.2794775 22.5737163,35.322846 22.2306005,35.2076959 C20.4615492,34.6585185 19.3163447,33.3564366 18.4028546,31.8240546 C17.4660545,30.2321567 16.9451978,28.4324658 16.8877981,26.589154 L16.8877981,26.2702768 C16.8877981,26.2437038 16.9189904,26.2127018 16.9457267,26.1285536 C17.1774412,26.3278518 17.4358921,26.5050059 17.6586945,26.7043041 C18.6880418,27.5723587 19.7441254,28.4138402 20.7155439,29.3394698 C21.8874848,30.4643977 22.6316449,31.8550566 22.7475022,33.5291618 C22.7742385,33.963189 22.7475022,34.3972163 22.6895735,34.8046705 C22.6004525,35.2076959 22.8009747,35.3804211 23.1440905,35.6727252 C23.1440905,35.207696 23.1752828,34.8622456 23.1440905,34.5123665 C23.0069251,31.9424351 22.6536652,29.3884148 22.0880069,26.8770292 C21.9430675,26.1754319 21.3247475,25.6697695 20.6041427,25.6635244 C18.9999652,25.6369513 17.7745518,24.8220429 16.6872759,23.785692 C15.3771976,22.5411852 14.6063011,20.9778011 14.0582071,19.2726939 C14.0582071,19.2461209 14.0314708,19.1841169 14.0314708,19.1265419 C14.0314708,19.0999689 14.0626632,19.0689668 14.0626632,19.0379649 C14.0893994,19.0379649 14.1205918,19.0113918 14.1473281,19.0113918 C15.6311923,19.6491462 17.1774412,20.2293255 18.6301131,20.9512281 C19.9179112,21.6155555 20.8581374,22.6563353 21.1700609,24.1311423 C21.2433717,24.4535199 21.27334,24.7841374 21.2591819,25.114347 C21.2324456,25.4907993 21.4329678,25.6369513 21.7760836,25.7786745 C21.7760836,25.6635244 21.8028198,25.5483743 21.7760836,25.4597973 C21.0926596,22.8954912 20.1738289,20.3989547 19.0311575,18.001614 C18.888564,17.7093099 18.0330026,17.3062846 17.7166231,17.4258635 C15.5465274,18.1167641 13.777476,17.3062846 12.1465622,15.9466277 C11.3444734,15.2823003 10.6894343,14.4408188 10.1502524,13.457614 C10.4621758,13.457614 10.7473629,13.431041 11.0058138,13.457614 C12.4317493,13.577193 13.857685,13.5196179 15.234604,14.0112203 C16.6338033,14.4983938 17.6319582,15.3664483 17.975074,16.8722573 C18.064195,17.2487096 18.3181897,17.2487096 18.6613055,17.3372866 C18.5721845,17.1335595 18.5454483,17.0184094 18.4875196,16.9032593 C17.5260686,14.9963505 16.3988601,13.1765581 15.1187467,11.4646316 C14.8602959,11.1457544 14.0938556,10.9420273 13.7462837,11.1191813 C11.4335944,12.3326862 9.32142728,11.8100819 7.34739775,10.2776998 C6.83495217,9.90124755 6.43390778,9.38307211 5.97939078,8.91804289 C6.00612705,8.86046781 6.03286339,8.82946588 6.06405572,8.77631965 C6.29131418,8.74531772 6.54976504,8.68774264 6.7770235,8.65674071 C8.00689292,8.45744246 9.23230637,8.13856527 10.4933681,8.28471737 C11.9772323,8.45744254 13.2338381,9.00661991 13.8888773,10.508 C14.0314708,10.8268772 14.0626632,10.8268772 14.6018451,10.742729 C14.0626632,10.1049747 13.6036902,9.4982222 13.0600522,8.94904483 C12.2579634,8.13856527 11.4603307,7.35465886 10.6359617,6.54860816 C10.4968766,6.42249304 10.328442,6.33270231 10.1457963,6.28730605 C7.9757006,6.14115403 6.34924285,5.04722807 5.11937334,3.30669008 C4.49309786,2.43170401 4.02976308,1.45218981 3.75136637,0.414651055 C3.72017405,0.326074039 3.72017405,0.215352809 3.69343778,0.0692007884 C4.31728457,0.299500966 4.89657094,0.50322807 5.46248914,0.706955174 C6.83495217,1.19412868 8.18067885,1.74773491 9.23230637,2.84608965 C10.0611314,3.71414421 10.6047694,4.66634694 10.4933681,5.91085378 C10.4933681,5.99943079 10.5468407,6.14115395 10.6359617,6.19872904 C12.489678,7.85069008 14.1205918,9.69752044 15.6044561,11.6683587 C15.6311923,11.7259338 15.7203133,11.7569357 15.7470496,11.8100818 C15.7737858,11.7835088 15.8361706,11.7835088 15.8629068,11.7525068 C15.7470496,11.4912047 15.6891209,11.1767563 15.5197911,10.9996024 C13.8042124,9.12177 12.9798433,6.86748543 12.8016014,4.34746982 C12.7169365,3.24911508 12.8016014,2.15076026 12.8327937,1.05240544 C12.8327937,0.87525141 12.9219147,0.733528248 13.0065797,0.414651055 C13.5769539,1.05240544 14.0893995,1.54400781 14.5216362,2.12418711 C15.7203133,3.74071729 16.602611,5.5344015 16.8343255,7.5893879 C16.976919,8.82946588 16.9189904,10.0163976 16.0901654,11.0571774 C16.0322367,11.1457544 15.9743081,11.2919064 16.0010444,11.3760546 C16.063429,11.9518051 16.148094,12.5054113 16.517946,13.0235868 C17.8904091,14.905848 19.0044212,16.9608343 19.9758399,19.0689668 L20.1451697,19.418846 C20.1763621,19.418846 20.2342907,19.387844 20.261027,19.387844 C20.2030983,19.1841169 20.2030983,18.9272437 20.1184334,18.7500897 C18.9153002,16.6419571 18.5142558,14.3566705 18.6301131,11.9562339 C18.7192341,10.4814269 19.0623498,9.09076807 19.717389,7.76211307 C19.7441253,7.67353605 19.80651,7.61596105 19.8867189,7.47423781 C20.0337685,7.70453799 20.1986423,7.87726316 20.2877633,8.08099026 C21.544369,10.685154 22.1726719,13.431041 21.9186771,16.3540818 C21.8441643,17.3192532 21.4160916,18.2237493 20.7155439,18.8962417 C20.630879,18.9848188 20.5150217,19.1265419 20.5462141,19.2151189 C20.5462141,19.7908695 20.5150218,20.3444757 20.7467363,20.9202261 C21.629034,23.0903626 22.2885292,25.3180741 22.7163099,27.6033606 C22.7163099,27.6299337 22.7475022,27.6919376 22.8900957,27.7185107 C22.8900957,27.4882105 22.9435683,27.2269083 22.9168321,26.9966082 C22.7475022,25.6945263 22.4311227,24.3924444 22.3731941,23.0903625 C22.2573368,20.4020506 23.1440905,18.059189 24.8864055,16.0042027 C24.9175979,15.9776296 24.9755265,15.9776296 25.0869277,15.8890526 C25.202785,16.292078 25.3721149,16.6685302 25.4567798,17.0759844 C26.0051544,19.5540857 25.9960248,22.1219839 25.4300435,24.5961716 C25.1715927,25.7476725 24.5744821,26.7043041 23.4872062,27.2844834 C23.3980852,27.3110565 23.3178764,27.3996335 23.3178764,27.4616375 C23.2287555,28.006386 23.0059531,28.5865653 23.0861619,29.1047407 C23.46047,31.5627524 23.6030635,34.0207641 23.6609922,36.4787758 C23.6609922,36.5407797 23.6877284,36.6249278 23.6877284,36.6825029 C23.7144647,36.6825029 23.7768494,36.6825029 23.8035857,36.7135049 C23.830322,36.5097778 23.9149869,36.2794776 23.914987,36.0757505 C23.8882507,34.6319454 23.8615144,33.1837116 24.2581027,31.7974815 C24.9710705,29.3970448 26.2276762,27.3996335 28.2596344,25.8938246 C28.2863707,25.8362495 28.3710356,25.7786745 28.5136292,25.6945263 L28.5136292,25.6945263 Z" id="路径"></path>
                    </g>
                </g>
            </g>
        </g>
    </g>
</svg>